<?xml version="1.0" encoding="UTF-8"?>
<svg version="1.1" xmlns="http://www.w3.org/2000/svg" width="96" height="96">
<path d="M0 0 C3.1875 1.625 3.1875 1.625 5 4 C5.8125 7.25 5.8125 7.25 6 10 C4.72125 10.061875 3.4425 10.12375 2.125 10.1875 C1.40570313 10.22230469 0.68640625 10.25710937 -0.0546875 10.29296875 C-0.69664063 10.19628906 -1.33859375 10.09960938 -2 10 C-2.66 9.01 -3.32 8.02 -4 7 C-5.32 7 -6.64 7 -8 7 C-8 7.66 -8 8.32 -8 9 C-7.15695313 9.33773437 -6.31390625 9.67546875 -5.4453125 10.0234375 C-4.34960938 10.46945313 -3.25390625 10.91546875 -2.125 11.375 C-0.48917969 12.03628906 -0.48917969 12.03628906 1.1796875 12.7109375 C4 14 4 14 6 16 C6.56114559 19.05972018 6.5072839 21.93447795 6 25 C3.82012027 27.9065063 2.1394206 28.74970105 -1.3828125 29.5234375 C-7.07421713 30.28795454 -10.97735005 30.15903568 -15.75 26.75 C-17.50291148 24.29592392 -17.67163788 21.95525904 -18 19 C-15.36 19 -12.72 19 -10 19 C-9.67 20.32 -9.34 21.64 -9 23 C-5.535 22.505 -5.535 22.505 -2 22 C-2.84424317 19.75123475 -2.84424317 19.75123475 -5.3984375 19.0703125 C-7.37658144 18.44208306 -9.35574697 17.81706098 -11.3359375 17.1953125 C-14.31688842 15.85781839 -15.40325908 14.8180891 -17 12 C-17.61233721 7.7901817 -17.43736375 5.73414629 -15.25 2.0625 C-10.32046033 -1.06586171 -5.68090324 -0.84074225 0 0 Z " fill="#C7002A" transform="translate(90,32)"/>
<path d="M0 0 C7.26 0 14.52 0 22 0 C22 1.98 22 3.96 22 6 C17.38 6 12.76 6 8 6 C8 7.32 8 8.64 8 10 C12.62 10 17.24 10 22 10 C22 12.31 22 14.62 22 17 C17.38 17 12.76 17 8 17 C8 18.65 8 20.3 8 22 C12.62 22 17.24 22 22 22 C22 23.98 22 25.96 22 28 C14.74 28 7.48 28 0 28 C0 18.76 0 9.52 0 0 Z " fill="#C6002B" transform="translate(10,33)"/>
<path d="M0 0 C7.92 0 15.84 0 24 0 C24 1.98 24 3.96 24 6 C21.36 6 18.72 6 16 6 C16 13.26 16 20.52 16 28 C13.36 28 10.72 28 8 28 C8 20.74 8 13.48 8 6 C5.36 6 2.72 6 0 6 C0 4.02 0 2.04 0 0 Z " fill="#C6002A" transform="translate(48,33)"/>
<path d="M0 0 C2.64 0 5.28 0 8 0 C8 6.93 8 13.86 8 21 C12.29 21 16.58 21 21 21 C21 23.31 21 25.62 21 28 C14.07 28 7.14 28 0 28 C0 18.76 0 9.52 0 0 Z " fill="#C6002B" transform="translate(34,33)"/>
<path d="M0 0 C2.64 0 5.28 0 8 0 C8 9.24 8 18.48 8 28 C5.36 28 2.72 28 0 28 C0 18.76 0 9.52 0 0 Z " fill="#C7002A" transform="translate(0,33)"/>
</svg>
